{
	"asset":{
		"generator":"Khronos glTF Blender I/O v4.3.47",
		"version":"2.0"
	},
	"scene":0,
	"scenes":[
		{
			"name":"Scene",
			"nodes":[
				0,
				1,
				2,
				3,
				4,
				5,
				6,
				7,
				8,
				9
			]
		}
	],
	"nodes":[
		{
			"mesh":0,
			"name":"Cube",
			"rotation":[
				0,
				-0.7071067094802856,
				0,
				0.7071068286895752
			],
			"scale":[
				1,
				1,
				1.2813130617141724
			],
			"translation":[
				-3.6001534461975098,
				0.1334693431854248,
				3.9921700954437256
			]
		},
		{
			"mesh":1,
			"name":"Text",
			"scale":[
				3.406925916671753,
				1.5036122798919678,
				3.406925916671753
			],
			"translation":[
				-9.064946174621582,
				0.5840948820114136,
				-3.0906941890716553
			]
		},
		{
			"mesh":2,
			"name":"Texto",
			"scale":[
				0.5254148840904236,
				1,
				0.5254148840904236
			],
			"translation":[
				-4.198809623718262,
				0.4702213704586029,
				3.842512369155884
			]
		},
		{
			"mesh":3,
			"name":"Cube.001",
			"rotation":[
				0,
				-0.7071067094802856,
				0,
				0.7071068286895752
			],
			"scale":[
				1,
				1,
				1.2813130617141724
			],
			"translation":[
				-4.458105087280273,
				0.15422053635120392,
				3.9932310581207275
			]
		},
		{
			"mesh":4,
			"name":"Texto.001",
			"scale":[
				0.5082499980926514,
				0.5082499980926514,
				0.5082499980926514
			],
			"translation":[
				-4.177331924438477,
				0.5299625396728516,
				4.423806190490723
			]
		},
		{
			"mesh":5,
			"name":"Cube.002",
			"rotation":[
				0,
				-0.7071067094802856,
				0,
				0.7071068286895752
			],
			"scale":[
				1,
				1,
				1.2813130617141724
			],
			"translation":[
				3.4178006649017334,
				0.15422053635120392,
				3.9932305812835693
			]
		},
		{
			"mesh":6,
			"name":"Cube.003",
			"rotation":[
				0,
				-0.7071067094802856,
				0,
				0.7071068286895752
			],
			"scale":[
				1,
				1,
				1.2813130617141724
			],
			"translation":[
				4.487473487854004,
				0.1334693431854248,
				3.9921698570251465
			]
		},
		{
			"mesh":7,
			"name":"Texto.002",
			"scale":[
				0.5254148840904236,
				1,
				0.5254148840904236
			],
			"translation":[
				3.8142666816711426,
				0.4702213704586029,
				3.909005880355835
			]
		},
		{
			"mesh":8,
			"name":"Cube.004",
			"rotation":[
				0,
				-0.7071067094802856,
				0,
				0.7071068286895752
			],
			"scale":[
				1,
				1,
				3.570354461669922
			],
			"translation":[
				0.028760768473148346,
				0.1334693431854248,
				0.025083720684051514
			]
		},
		{
			"mesh":9,
			"name":"Cube.005",
			"rotation":[
				0,
				-0.7071067094802856,
				0,
				0.7071068286895752
			],
			"scale":[
				1,
				1,
				3.570354461669922
			],
			"translation":[
				0.028760768473148346,
				0.273712158203125,
				0.025083720684051514
			]
		}
	],
	"materials":[
		{
			"doubleSided":true,
			"name":"Material.004",
			"pbrMetallicRoughness":{
				"baseColorFactor":[
					0.8000229597091675,
					0.17286941409111023,
					0.0166081003844738,
					1
				],
				"metallicFactor":0,
				"roughnessFactor":0.5
			}
		},
		{
			"doubleSided":true,
			"name":"Material",
			"pbrMetallicRoughness":{
				"baseColorFactor":[
					0.053700171411037445,
					0.06310857832431793,
					0.8000074625015259,
					1
				],
				"metallicFactor":0,
				"roughnessFactor":0.5
			}
		},
		{
			"doubleSided":true,
			"name":"Material.005",
			"pbrMetallicRoughness":{
				"baseColorFactor":[
					0.8000229597091675,
					0.17286941409111023,
					0.0166081003844738,
					1
				],
				"metallicFactor":0,
				"roughnessFactor":0.5
			}
		},
		{
			"doubleSided":true,
			"name":"Material.006",
			"pbrMetallicRoughness":{
				"baseColorFactor":[
					0.7971100211143494,
					0.800039529800415,
					0.7497637867927551,
					1
				],
				"metallicFactor":0,
				"roughnessFactor":0.5
			}
		}
	],
	"meshes":[
		{
			"name":"Cube.001",
			"primitives":[
				{
					"attributes":{
						"POSITION":0,
						"NORMAL":1,
						"TEXCOORD_0":2
					},
					"indices":3,
					"material":0
				}
			]
		},
		{
			"name":"Curva",
			"primitives":[
				{
					"attributes":{
						"POSITION":4,
						"NORMAL":5,
						"TEXCOORD_0":6
					},
					"indices":7
				}
			]
		},
		{
			"name":"Texto",
			"primitives":[
				{
					"attributes":{
						"POSITION":8,
						"NORMAL":9,
						"TEXCOORD_0":10
					},
					"indices":11
				}
			]
		},
		{
			"name":"Cube.003",
			"primitives":[
				{
					"attributes":{
						"POSITION":12,
						"NORMAL":13,
						"TEXCOORD_0":14
					},
					"indices":15
				}
			]
		},
		{
			"name":"Texto.001",
			"primitives":[
				{
					"attributes":{
						"POSITION":16,
						"NORMAL":17,
						"TEXCOORD_0":18
					},
					"indices":19
				}
			]
		},
		{
			"name":"Cube.004",
			"primitives":[
				{
					"attributes":{
						"POSITION":20,
						"NORMAL":21,
						"TEXCOORD_0":22
					},
					"indices":15
				}
			]
		},
		{
			"name":"Cube.005",
			"primitives":[
				{
					"attributes":{
						"POSITION":23,
						"NORMAL":24,
						"TEXCOORD_0":25
					},
					"indices":3,
					"material":1
				}
			]
		},
		{
			"name":"Texto.002",
			"primitives":[
				{
					"attributes":{
						"POSITION":26,
						"NORMAL":27,
						"TEXCOORD_0":28
					},
					"indices":29
				}
			]
		},
		{
			"name":"Cube.006",
			"primitives":[
				{
					"attributes":{
						"POSITION":30,
						"NORMAL":31,
						"TEXCOORD_0":32
					},
					"indices":3,
					"material":2
				}
			]
		},
		{
			"name":"Cube.007",
			"primitives":[
				{
					"attributes":{
						"POSITION":33,
						"NORMAL":34,
						"TEXCOORD_0":35
					},
					"indices":36,
					"material":3
				}
			]
		}
	],
	"accessors":[
		{
			"bufferView":0,
			"componentType":5126,
			"count":24,
			"max":[
				0.9663591384887695,
				0.1334693431854248,
				1.9693362712860107
			],
			"min":[
				-0.9663591384887695,
				-0.1334693431854248,
				-1.9693362712860107
			],
			"type":"VEC3"
		},
		{
			"bufferView":1,
			"componentType":5126,
			"count":24,
			"type":"VEC3"
		},
		{
			"bufferView":2,
			"componentType":5126,
			"count":24,
			"type":"VEC2"
		},
		{
			"bufferView":3,
			"componentType":5123,
			"count":36,
			"type":"SCALAR"
		},
		{
			"bufferView":4,
			"componentType":5126,
			"count":1066,
			"max":[
				5.220000267028809,
				0,
				0.23000000417232513
			],
			"min":[
				0.04500000178813934,
				0,
				-0.6910000443458557
			],
			"type":"VEC3"
		},
		{
			"bufferView":5,
			"componentType":5126,
			"count":1066,
			"type":"VEC3"
		},
		{
			"bufferView":6,
			"componentType":5126,
			"count":1066,
			"type":"VEC2"
		},
		{
			"bufferView":7,
			"componentType":5123,
			"count":3162,
			"type":"SCALAR"
		},
		{
			"bufferView":8,
			"componentType":5126,
			"count":1079,
			"max":[
				4.048999786376953,
				0,
				0.23000000417232513
			],
			"min":[
				0.07700000703334808,
				0,
				-0.6820000410079956
			],
			"type":"VEC3"
		},
		{
			"bufferView":9,
			"componentType":5126,
			"count":1079,
			"type":"VEC3"
		},
		{
			"bufferView":10,
			"componentType":5126,
			"count":1079,
			"type":"VEC2"
		},
		{
			"bufferView":11,
			"componentType":5123,
			"count":3207,
			"type":"SCALAR"
		},
		{
			"bufferView":12,
			"componentType":5126,
			"count":20,
			"max":[
				0.9663591384887695,
				0.1334693431854248,
				1.9693362712860107
			],
			"min":[
				-0.9663591384887695,
				-0.1334693431854248,
				0.22940152883529663
			],
			"type":"VEC3"
		},
		{
			"bufferView":13,
			"componentType":5126,
			"count":20,
			"type":"VEC3"
		},
		{
			"bufferView":14,
			"componentType":5126,
			"count":20,
			"type":"VEC2"
		},
		{
			"bufferView":15,
			"componentType":5123,
			"count":30,
			"type":"SCALAR"
		},
		{
			"bufferView":16,
			"componentType":5126,
			"count":594,
			"max":[
				3.6690001487731934,
				0,
				0.009000000543892384
			],
			"min":[
				0.026000000536441803,
				0,
				-0.6820000410079956
			],
			"type":"VEC3"
		},
		{
			"bufferView":17,
			"componentType":5126,
			"count":594,
			"type":"VEC3"
		},
		{
			"bufferView":18,
			"componentType":5126,
			"count":594,
			"type":"VEC2"
		},
		{
			"bufferView":19,
			"componentType":5123,
			"count":1758,
			"type":"SCALAR"
		},
		{
			"bufferView":20,
			"componentType":5126,
			"count":20,
			"max":[
				0.9663591384887695,
				0.1334693431854248,
				1.9693362712860107
			],
			"min":[
				-0.9663591384887695,
				-0.1334693431854248,
				0.22940152883529663
			],
			"type":"VEC3"
		},
		{
			"bufferView":21,
			"componentType":5126,
			"count":20,
			"type":"VEC3"
		},
		{
			"bufferView":22,
			"componentType":5126,
			"count":20,
			"type":"VEC2"
		},
		{
			"bufferView":23,
			"componentType":5126,
			"count":24,
			"max":[
				0.9663591384887695,
				0.1334693431854248,
				1.9693362712860107
			],
			"min":[
				-0.9663591384887695,
				-0.1334693431854248,
				-1.9693362712860107
			],
			"type":"VEC3"
		},
		{
			"bufferView":24,
			"componentType":5126,
			"count":24,
			"type":"VEC3"
		},
		{
			"bufferView":25,
			"componentType":5126,
			"count":24,
			"type":"VEC2"
		},
		{
			"bufferView":26,
			"componentType":5126,
			"count":1318,
			"max":[
				4.368000507354736,
				0,
				1.0089999437332153
			],
			"min":[
				0.04100000113248825,
				0,
				-0.6820000410079956
			],
			"type":"VEC3"
		},
		{
			"bufferView":27,
			"componentType":5126,
			"count":1318,
			"type":"VEC3"
		},
		{
			"bufferView":28,
			"componentType":5126,
			"count":1318,
			"type":"VEC2"
		},
		{
			"bufferView":29,
			"componentType":5123,
			"count":3882,
			"type":"SCALAR"
		},
		{
			"bufferView":30,
			"componentType":5126,
			"count":24,
			"max":[
				0.9663591384887695,
				0.1334693431854248,
				1.9693362712860107
			],
			"min":[
				-0.9663591384887695,
				-0.1334693431854248,
				-1.9693362712860107
			],
			"type":"VEC3"
		},
		{
			"bufferView":31,
			"componentType":5126,
			"count":24,
			"type":"VEC3"
		},
		{
			"bufferView":32,
			"componentType":5126,
			"count":24,
			"type":"VEC2"
		},
		{
			"bufferView":33,
			"componentType":5126,
			"count":28,
			"max":[
				0.9663591384887695,
				0.1334693431854248,
				1.9693362712860107
			],
			"min":[
				-0.9663594961166382,
				-0.1334693431854248,
				0.3708721399307251
			],
			"type":"VEC3"
		},
		{
			"bufferView":34,
			"componentType":5126,
			"count":28,
			"type":"VEC3"
		},
		{
			"bufferView":35,
			"componentType":5126,
			"count":28,
			"type":"VEC2"
		},
		{
			"bufferView":36,
			"componentType":5123,
			"count":54,
			"type":"SCALAR"
		}
	],
	"bufferViews":[
		{
			"buffer":0,
			"byteLength":288,
			"byteOffset":0,
			"target":34962
		},
		{
			"buffer":0,
			"byteLength":288,
			"byteOffset":288,
			"target":34962
		},
		{
			"buffer":0,
			"byteLength":192,
			"byteOffset":576,
			"target":34962
		},
		{
			"buffer":0,
			"byteLength":72,
			"byteOffset":768,
			"target":34963
		},
		{
			"buffer":0,
			"byteLength":12792,
			"byteOffset":840,
			"target":34962
		},
		{
			"buffer":0,
			"byteLength":12792,
			"byteOffset":13632,
			"target":34962
		},
		{
			"buffer":0,
			"byteLength":8528,
			"byteOffset":26424,
			"target":34962
		},
		{
			"buffer":0,
			"byteLength":6324,
			"byteOffset":34952,
			"target":34963
		},
		{
			"buffer":0,
			"byteLength":12948,
			"byteOffset":41276,
			"target":34962
		},
		{
			"buffer":0,
			"byteLength":12948,
			"byteOffset":54224,
			"target":34962
		},
		{
			"buffer":0,
			"byteLength":8632,
			"byteOffset":67172,
			"target":34962
		},
		{
			"buffer":0,
			"byteLength":6414,
			"byteOffset":75804,
			"target":34963
		},
		{
			"buffer":0,
			"byteLength":240,
			"byteOffset":82220,
			"target":34962
		},
		{
			"buffer":0,
			"byteLength":240,
			"byteOffset":82460,
			"target":34962
		},
		{
			"buffer":0,
			"byteLength":160,
			"byteOffset":82700,
			"target":34962
		},
		{
			"buffer":0,
			"byteLength":60,
			"byteOffset":82860,
			"target":34963
		},
		{
			"buffer":0,
			"byteLength":7128,
			"byteOffset":82920,
			"target":34962
		},
		{
			"buffer":0,
			"byteLength":7128,
			"byteOffset":90048,
			"target":34962
		},
		{
			"buffer":0,
			"byteLength":4752,
			"byteOffset":97176,
			"target":34962
		},
		{
			"buffer":0,
			"byteLength":3516,
			"byteOffset":101928,
			"target":34963
		},
		{
			"buffer":0,
			"byteLength":240,
			"byteOffset":105444,
			"target":34962
		},
		{
			"buffer":0,
			"byteLength":240,
			"byteOffset":105684,
			"target":34962
		},
		{
			"buffer":0,
			"byteLength":160,
			"byteOffset":105924,
			"target":34962
		},
		{
			"buffer":0,
			"byteLength":288,
			"byteOffset":106084,
			"target":34962
		},
		{
			"buffer":0,
			"byteLength":288,
			"byteOffset":106372,
			"target":34962
		},
		{
			"buffer":0,
			"byteLength":192,
			"byteOffset":106660,
			"target":34962
		},
		{
			"buffer":0,
			"byteLength":15816,
			"byteOffset":106852,
			"target":34962
		},
		{
			"buffer":0,
			"byteLength":15816,
			"byteOffset":122668,
			"target":34962
		},
		{
			"buffer":0,
			"byteLength":10544,
			"byteOffset":138484,
			"target":34962
		},
		{
			"buffer":0,
			"byteLength":7764,
			"byteOffset":149028,
			"target":34963
		},
		{
			"buffer":0,
			"byteLength":288,
			"byteOffset":156792,
			"target":34962
		},
		{
			"buffer":0,
			"byteLength":288,
			"byteOffset":157080,
			"target":34962
		},
		{
			"buffer":0,
			"byteLength":192,
			"byteOffset":157368,
			"target":34962
		},
		{
			"buffer":0,
			"byteLength":336,
			"byteOffset":157560,
			"target":34962
		},
		{
			"buffer":0,
			"byteLength":336,
			"byteOffset":157896,
			"target":34962
		},
		{
			"buffer":0,
			"byteLength":224,
			"byteOffset":158232,
			"target":34962
		},
		{
			"buffer":0,
			"byteLength":108,
			"byteOffset":158456,
			"target":34963
		}
	],
	"buffers":[
		{
			"byteLength":158564,
			"uri":"operathings.bin"
		}
	]
}
